<svg id="visual" viewBox="0 0 900 600" width="900" height="600" xmlns="http://www.w3.org/2000/svg" xmlns:xlink="http://www.w3.org/1999/xlink" version="1.1"><rect x="0" y="0" width="900" height="600" fill="#F8F4E1"></rect><path d="M0 282L21.5 297C43 312 86 342 128.8 363.5C171.7 385 214.3 398 257.2 375.7C300 353.3 343 295.7 385.8 326.7C428.7 357.7 471.3 477.3 514.2 475.5C557 473.7 600 350.3 642.8 257.2C685.7 164 728.3 101 771.2 89.2C814 77.3 857 116.7 878.5 136.3L900 156L900 0L878.5 0C857 0 814 0 771.2 0C728.3 0 685.7 0 642.8 0C600 0 557 0 514.2 0C471.3 0 428.7 0 385.8 0C343 0 300 0 257.2 0C214.3 0 171.7 0 128.8 0C86 0 43 0 21.5 0L0 0Z" fill="#543310" stroke-linecap="round" stroke-linejoin="miter"></path></svg>