<svg id="visual" viewBox="0 0 900 600" width="900" height="600" xmlns="http://www.w3.org/2000/svg" xmlns:xlink="http://www.w3.org/1999/xlink" version="1.1"><rect x="0" y="0" width="900" height="600" fill="#74512D"></rect><g transform="translate(505.02413754532137 354.91758923324073)"><path d="M146.9 -229.9C191.9 -169.5 231 -128.6 242.2 -81.7C253.3 -34.7 236.5 18.3 218.2 69.8C200 121.2 180.2 171 143.6 196.6C107 222.2 53.5 223.6 -8.1 234.8C-69.8 246 -139.5 267 -200.5 249.3C-261.6 231.7 -313.9 175.3 -339.1 107.8C-364.3 40.3 -362.4 -38.4 -323.7 -89C-285 -139.6 -209.5 -162 -149.4 -217.5C-89.3 -273 -44.7 -361.5 3.1 -365.8C50.9 -370.1 101.9 -290.2 146.9 -229.9" fill="#543310"></path></g></svg>